<?xml version="1.0" standalone="no"?>
<!DOCTYPE svg PUBLIC "-//W3C//DTD SVG 20010904//EN"
 "http://www.w3.org/TR/2001/REC-SVG-20010904/DTD/svg10.dtd">
<svg version="1.0" xmlns="http://www.w3.org/2000/svg"
 width="100.000000pt" height="100.000000pt" viewBox="0 0 100.000000 100.000000"
 preserveAspectRatio="xMidYMid meet">
<metadata>
Created by potrace 1.15, written by Peter Selinger 2001-2017
</metadata>
<g transform="translate(0.000000,100.000000) scale(0.100000,-0.100000)"
fill="#000000" stroke="none">
<path d="M154 926 l-34 -34 0 -393 c1 -418 -1 -407 50 -442 22 -15 61 -17 367
-17 333 0 343 1 343 19 0 19 -11 20 -334 23 -312 3 -335 4 -355 22 -12 11 -21
31 -21 46 0 15 9 35 21 46 20 18 43 19 355 22 l334 3 0 370 0 369 -346 0 -346
0 -34 -34z m686 -336 l0 -330 -321 0 c-202 0 -327 -4 -340 -10 -19 -10 -19 -4
-19 283 0 193 4 305 11 327 20 56 40 59 372 60 l297 0 0 -330z"/>
</g>
</svg>
