<?xml version="1.0" standalone="no"?>
<!DOCTYPE svg PUBLIC "-//W3C//DTD SVG 20010904//EN"
 "http://www.w3.org/TR/2001/REC-SVG-20010904/DTD/svg10.dtd">
<svg version="1.0" xmlns="http://www.w3.org/2000/svg"
 width="40.000000pt" height="40.000000pt" viewBox="0 0 40.000000 40.000000"
 preserveAspectRatio="xMidYMid meet">
<metadata>
Created by potrace 1.15, written by Peter Selinger 2001-2017
</metadata>
<g transform="translate(0.000000,40.000000) scale(0.100000,-0.100000)"
fill="#000000" stroke="none">
<path d="M56 368 c-13 -18 -16 -53 -16 -174 0 -195 -10 -184 178 -184 118 0
142 2 142 15 0 12 -25 15 -142 17 -119 3 -143 5 -143 18 0 13 24 15 142 18
l143 3 0 154 0 155 -144 0 c-138 0 -146 -1 -160 -22z m274 -133 l0 -125 -130
0 -130 0 0 118 c0 65 3 122 7 125 3 4 62 7 130 7 l123 0 0 -125z"/>
</g>
</svg>
